<?xml version="1.0" standalone="no"?>
<!DOCTYPE svg PUBLIC "-//W3C//DTD SVG 20010904//EN"
 "http://www.w3.org/TR/2001/REC-SVG-20010904/DTD/svg10.dtd">
<svg version="1.0" xmlns="http://www.w3.org/2000/svg"
 width="512.000000pt" height="512.000000pt" viewBox="0 0 512.000000 512.000000"
 preserveAspectRatio="xMidYMid meet">
<metadata>
Created by potrace 1.14, written by Peter Selinger 2001-2017
</metadata>
<g transform="translate(0.000000,512.000000) scale(0.100000,-0.100000)"
fill="#000000" stroke="none">
<path d="M2535 5090 c-3 -5 -4 -14 -1 -18 3 -5 -4 -14 -14 -22 -10 -8 -17 -17
-14 -21 3 -5 -4 -17 -15 -28 -11 -11 -17 -22 -13 -25 3 -3 0 -6 -6 -6 -7 0
-11 -6 -9 -12 1 -7 -4 -12 -10 -10 -7 1 -12 -1 -11 -5 3 -15 -22 -63 -32 -63
-6 0 -8 -4 -5 -10 3 -5 0 -10 -7 -10 -9 0 -9 -3 2 -10 13 -8 13 -10 -2 -10 -9
0 -20 -5 -24 -12 -4 -7 -3 -8 4 -4 8 5 10 2 6 -8 -3 -9 -10 -13 -15 -10 -5 3
-9 -2 -9 -10 0 -8 -8 -20 -17 -25 -14 -8 -15 -11 -3 -11 12 0 11 -3 -3 -11 -9
-6 -15 -14 -12 -20 4 -5 -1 -12 -9 -15 -9 -3 -13 -10 -10 -15 3 -5 1 -9 -4 -9
-5 0 -12 -9 -15 -21 -3 -12 -10 -18 -16 -14 -7 4 -8 0 -4 -11 4 -12 3 -15 -5
-10 -8 5 -10 2 -6 -8 3 -9 1 -16 -5 -16 -6 0 -11 -7 -11 -15 0 -8 -8 -15 -17
-16 -10 0 -13 -3 -6 -5 7 -3 9 -12 6 -20 -3 -7 -9 -12 -13 -9 -11 7 -22 -24
-13 -37 3 -6 2 -9 -3 -6 -5 3 -15 0 -22 -8 -7 -8 -10 -14 -6 -14 3 0 1 -7 -6
-15 -6 -8 -9 -19 -5 -24 3 -7 0 -8 -9 -5 -11 4 -14 0 -11 -15 2 -13 -1 -18
-10 -15 -7 3 -16 0 -21 -7 -4 -8 -3 -10 4 -5 7 4 12 2 12 -4 0 -6 -7 -13 -15
-16 -8 -4 -12 -10 -9 -15 3 -5 0 -9 -6 -9 -7 0 -10 -7 -6 -15 3 -8 0 -14 -7
-12 -7 1 -11 -4 -10 -10 2 -7 -2 -13 -8 -13 -5 0 -8 -4 -5 -9 4 -5 1 -11 -4
-13 -6 -2 -12 -11 -13 -19 -2 -9 -10 -24 -20 -33 -9 -10 -17 -22 -17 -27 0 -5
-8 -9 -17 -9 -15 0 -16 -2 -3 -10 12 -8 12 -10 -2 -15 -9 -4 -14 -13 -11 -21
3 -9 -1 -14 -12 -14 -9 0 -14 -4 -11 -8 3 -5 -3 -18 -14 -29 -10 -12 -16 -24
-13 -27 4 -3 1 -6 -6 -6 -7 0 -9 -4 -6 -10 3 -5 1 -10 -5 -10 -6 0 -8 -4 -5
-10 3 -5 1 -10 -5 -10 -6 0 -8 -5 -4 -12 5 -7 2 -9 -9 -5 -12 4 -14 2 -10 -10
5 -12 3 -14 -8 -8 -12 8 -12 6 0 -9 12 -15 12 -17 0 -14 -8 2 -13 -3 -12 -9 2
-7 -2 -13 -7 -13 -6 0 -10 -7 -10 -15 0 -8 -5 -15 -11 -15 -5 0 -7 -4 -4 -10
3 -5 -1 -10 -9 -10 -10 0 -13 -7 -11 -21 3 -15 -2 -23 -16 -26 -16 -5 -17 -8
-7 -21 8 -10 8 -13 2 -9 -7 4 -19 -5 -29 -19 -9 -15 -11 -23 -4 -19 8 5 10 4
5 -3 -4 -7 -15 -12 -24 -12 -15 0 -15 -2 -2 -10 10 -6 11 -10 3 -10 -7 0 -13
-7 -13 -16 0 -8 -4 -13 -9 -10 -5 4 -12 -7 -16 -24 -4 -17 -10 -28 -15 -25
-11 7 -22 -24 -13 -37 3 -7 1 -8 -5 -4 -7 4 -17 -7 -26 -29 -8 -19 -21 -35
-28 -35 -9 0 -9 -3 2 -10 13 -8 12 -10 -3 -10 -10 0 -15 -4 -12 -10 3 -5 -5
-21 -18 -34 -13 -13 -22 -31 -21 -40 1 -9 -2 -14 -7 -10 -5 3 -9 0 -9 -6 0 -6
-9 -21 -20 -33 -11 -12 -18 -27 -16 -34 5 -11 -5 -17 -25 -15 -3 1 -6 -5 -6
-13 0 -8 5 -12 11 -9 6 3 3 -1 -6 -9 -10 -8 -18 -19 -18 -25 0 -5 -7 -13 -16
-16 -8 -3 -13 -10 -9 -15 3 -6 -8 -26 -25 -45 -17 -19 -31 -37 -31 -40 3 -21
-1 -26 -16 -26 -15 0 -16 -2 -3 -10 8 -5 10 -10 3 -10 -6 0 -16 -13 -22 -30
-6 -18 -17 -30 -28 -30 -14 0 -15 -2 -4 -9 11 -7 10 -10 -4 -18 -9 -5 -18 -14
-18 -19 -1 -5 -5 -8 -9 -7 -4 2 -5 -4 -2 -12 4 -8 1 -15 -6 -15 -6 0 -8 -5 -5
-10 3 -6 -1 -13 -9 -16 -9 -3 -13 -10 -10 -15 3 -5 0 -9 -6 -9 -6 0 -8 -4 -5
-10 3 -5 1 -10 -4 -10 -6 0 -11 -7 -11 -15 0 -8 -4 -15 -8 -15 -5 0 -15 -12
-23 -27 -8 -16 -20 -33 -28 -39 -10 -8 -11 -13 -3 -18 7 -4 12 -13 12 -19 0
-7 -4 -6 -10 3 -7 12 -10 11 -16 -5 -4 -11 -15 -25 -23 -32 -9 -6 -13 -15 -9
-19 4 -4 -2 -15 -14 -26 -12 -10 -18 -21 -15 -24 3 -4 -4 -15 -16 -26 -12 -11
-15 -16 -7 -12 13 7 13 5 1 -9 -7 -9 -17 -15 -21 -12 -4 2 -6 -6 -5 -20 2 -18
-1 -22 -13 -18 -10 4 -14 3 -10 -2 4 -4 -1 -20 -12 -35 -18 -25 -29 -72 -14
-57 4 4 15 -3 25 -14 9 -11 20 -20 23 -20 21 3 26 0 20 -11 -4 -7 -3 -8 5 -4
6 4 18 0 27 -8 9 -9 19 -14 24 -11 5 3 10 2 12 -2 6 -14 89 -64 108 -66 10 -1
17 -4 15 -8 -3 -3 8 -12 23 -20 15 -7 35 -20 46 -29 10 -8 19 -13 20 -12 2 7
66 -33 66 -41 0 -5 4 -6 9 -2 5 3 16 -1 24 -9 8 -8 17 -12 21 -9 3 4 6 1 6 -5
0 -7 7 -12 15 -12 9 0 18 -7 22 -16 3 -8 12 -13 19 -10 8 3 14 1 14 -5 0 -6 5
-7 10 -4 6 3 10 1 10 -4 0 -6 7 -11 15 -11 8 0 15 -4 15 -10 0 -5 7 -10 15
-10 8 0 15 -5 15 -11 0 -5 4 -8 9 -5 5 3 14 -1 21 -9 7 -8 19 -15 26 -15 8 0
14 -5 14 -11 0 -5 5 -7 10 -4 5 3 10 1 10 -5 0 -6 5 -8 10 -5 6 3 10 2 10 -3
0 -6 18 -17 40 -26 23 -9 43 -23 46 -30 3 -8 12 -12 20 -9 7 3 17 -2 20 -11 3
-9 10 -13 15 -10 5 3 9 0 9 -6 0 -6 4 -9 8 -6 5 3 18 -4 30 -14 12 -11 28 -20
37 -20 8 0 15 -4 15 -10 0 -5 7 -10 15 -10 8 0 15 -4 15 -10 0 -5 8 -10 18
-10 10 0 27 -8 38 -18 10 -10 34 -24 52 -31 17 -7 32 -17 32 -22 0 -5 7 -9 15
-9 8 0 15 -5 15 -11 0 -5 4 -8 9 -5 4 3 23 -6 41 -19 18 -13 37 -22 41 -19 5
3 9 -2 9 -10 0 -9 9 -16 20 -16 10 0 29 -10 41 -22 12 -13 19 -17 15 -10 -7
11 52 -23 82 -48 7 -6 16 -9 21 -6 5 3 12 -1 15 -10 3 -8 10 -12 16 -9 5 3 10
-2 10 -12 0 -14 2 -15 9 -5 7 11 9 11 14 -2 4 -9 13 -16 22 -16 8 0 15 -4 15
-9 0 -4 10 -7 23 -6 12 1 28 3 35 4 7 0 10 6 6 13 -5 8 -2 9 9 5 10 -4 20 0
26 11 5 9 11 16 13 14 5 -5 58 17 58 23 0 4 -5 3 -12 -1 -7 -4 -8 -3 -4 4 4 6
13 9 21 5 8 -3 15 0 15 7 0 6 5 8 10 5 6 -3 10 -1 10 5 0 6 5 8 10 5 6 -3 10
1 10 9 0 10 6 13 15 10 8 -4 17 1 21 10 3 9 10 14 14 11 5 -3 15 1 23 9 8 8
17 12 21 9 3 -4 6 -2 6 4 0 6 11 14 25 17 16 4 23 11 19 18 -5 8 -2 9 9 5 10
-3 17 -2 17 3 0 6 7 10 15 10 8 0 15 5 15 12 0 6 3 8 7 5 3 -4 13 -1 22 7 9 8
40 26 69 41 28 15 52 31 52 37 0 5 5 6 10 3 6 -3 10 -1 10 5 0 7 6 10 14 7 8
-3 17 1 20 9 3 9 10 12 16 9 5 -3 10 -1 10 4 0 6 5 11 11 11 7 0 18 8 26 18 9
10 11 11 7 2 -5 -10 0 -9 14 4 12 11 22 15 22 10 0 -5 5 -2 10 6 5 8 14 16 20
16 5 1 15 2 21 3 5 0 7 5 4 11 -6 9 8 14 28 11 4 0 7 4 7 10 0 5 5 7 10 4 6
-3 10 -1 10 4 0 6 7 11 15 11 8 0 15 5 15 10 0 6 7 10 15 10 8 0 15 5 15 11 0
6 6 9 12 7 7 -3 18 0 25 6 33 29 43 36 43 31 0 -4 7 1 16 9 8 9 19 14 24 11 4
-3 11 2 14 11 3 8 10 12 16 9 5 -3 10 -1 10 5 0 6 4 9 9 5 6 -3 13 0 18 7 4 7
24 21 43 32 19 10 49 27 67 37 17 9 34 15 37 12 3 -4 6 -1 6 5 0 6 18 20 40
30 22 10 37 21 34 25 -4 4 2 7 13 7 11 0 30 9 43 20 13 11 29 20 37 20 7 0 13
5 13 11 0 5 5 7 10 4 6 -3 10 -2 10 3 0 8 63 42 76 41 3 0 14 9 24 21 10 12
20 20 22 19 2 -1 13 1 24 5 23 7 29 53 6 49 -6 -2 -9 4 -6 12 4 8 1 15 -5 15
-6 0 -11 9 -11 21 0 11 -4 17 -10 14 -5 -3 -10 3 -10 15 0 12 -4 19 -9 15 -5
-3 -11 5 -13 17 -2 13 -9 22 -15 21 -7 -2 -10 6 -8 17 2 11 -2 20 -8 20 -7 0
-17 11 -24 25 -8 19 -8 23 0 18 7 -4 -5 10 -25 31 -21 21 -36 42 -33 46 3 5
-2 15 -10 23 -8 9 -15 23 -15 32 0 8 -7 18 -16 22 -8 3 -13 12 -10 20 3 8 1
11 -4 8 -6 -3 -10 1 -10 9 0 8 -8 19 -17 25 -10 5 -17 12 -15 15 5 13 1 27 -7
22 -5 -3 -8 2 -7 12 0 9 -5 16 -12 14 -6 -1 -11 1 -10 5 1 5 -3 18 -10 31 -7
12 -10 22 -7 22 3 0 0 6 -7 14 -7 8 -16 12 -19 10 -3 -2 -6 3 -7 11 -1 8 -3
22 -4 30 -1 8 -5 12 -9 9 -10 -6 -32 34 -24 46 3 5 0 12 -6 16 -8 5 -9 3 -4
-6 5 -9 4 -11 -3 -6 -7 4 -12 14 -12 22 0 8 -5 14 -11 14 -5 0 -8 4 -5 9 3 5
0 11 -8 14 -7 3 -16 19 -19 36 -4 17 -10 31 -14 30 -21 -3 -24 2 -12 18 12 14
12 16 0 8 -11 -6 -13 -4 -8 8 4 11 2 14 -9 10 -9 -3 -14 1 -14 12 0 10 -7 23
-16 29 -8 6 -17 20 -18 31 -2 11 -9 19 -16 17 -6 -1 -9 2 -6 7 4 5 -1 16 -9
25 -9 8 -16 18 -15 21 1 20 -2 25 -14 25 -9 0 -13 9 -12 25 2 13 -2 23 -8 22
-6 -1 -10 4 -8 12 2 9 -3 11 -15 7 -9 -4 -14 -4 -10 0 4 4 1 14 -6 22 -9 13
-9 14 0 8 9 -5 11 -2 7 8 -3 9 -10 13 -15 11 -5 -3 -11 6 -15 20 -3 14 -10 25
-15 25 -5 0 -9 7 -9 15 0 8 -4 15 -10 15 -5 0 -10 9 -10 21 0 11 -4 18 -9 14
-5 -3 -11 5 -13 17 -2 13 -9 22 -15 21 -8 -2 -10 4 -6 14 4 11 3 14 -5 9 -8
-5 -12 0 -12 14 0 14 -4 19 -12 14 -10 -6 -10 -4 0 8 11 14 10 17 -8 23 -11 3
-18 11 -15 16 4 5 -1 12 -10 15 -13 6 -14 8 -3 15 10 7 9 9 -3 9 -10 0 -20 11
-23 25 -4 14 -10 24 -15 21 -4 -3 -8 1 -9 9 -1 8 -3 22 -4 30 -1 8 -5 12 -10
9 -4 -3 -8 0 -8 6 0 7 -10 20 -22 31 -21 17 -21 18 -3 12 16 -5 14 -1 -8 19
-19 18 -24 28 -15 31 8 4 7 6 -4 6 -10 1 -17 7 -15 14 1 6 -4 11 -11 9 -8 -1
-11 2 -7 8 3 5 2 10 -4 10 -5 0 -8 9 -6 20 2 11 -1 19 -8 17 -7 -1 -11 4 -10
11 2 6 -5 12 -15 13 -10 0 -12 3 -5 6 10 3 9 8 -2 20 -8 8 -13 19 -10 24 4 5
-2 9 -11 9 -10 0 -15 3 -11 6 3 4 -1 13 -9 21 -8 9 -13 22 -10 30 3 8 2 12 -3
9 -5 -3 -15 2 -22 11 -10 12 -10 14 -1 9 6 -4 12 -2 12 3 0 6 -7 11 -15 11 -8
0 -15 5 -15 10 0 21 -2 25 -16 33 -8 4 -14 17 -14 28 0 11 -4 17 -10 14 -9 -5
-15 15 -11 37 0 4 -6 5 -15 1 -8 -3 -14 -2 -12 3 4 15 -13 54 -23 54 -5 0 -9
7 -9 15 0 8 -5 15 -11 15 -6 0 -8 7 -5 16 4 10 2 13 -6 8 -8 -5 -9 -2 -5 9 4
10 2 16 -6 14 -7 -1 -12 5 -12 14 0 9 -7 23 -15 32 -29 32 -40 47 -41 54 -1 5
-6 7 -12 5 -6 -2 -4 5 4 14 8 10 10 15 4 12 -5 -3 -16 0 -23 8 -7 8 -8 14 -3
14 6 0 -1 11 -15 25 -14 14 -22 30 -19 35 3 6 1 10 -4 10 -6 0 -11 5 -11 11 0
7 -8 18 -17 26 -12 10 -13 12 -3 8 10 -4 9 -2 -2 8 -10 8 -15 17 -11 20 3 4
-1 7 -10 7 -10 0 -17 8 -17 21 0 13 -4 18 -12 13 -8 -5 -7 0 2 11 9 11 10 16
3 11 -8 -4 -13 -2 -13 8 0 8 -10 22 -22 30 -15 11 -18 16 -8 16 13 0 13 2 0
10 -19 13 -37 13 -45 0z"/>
<path d="M3965 2820 c3 -5 8 -10 11 -10 2 0 4 5 4 10 0 6 -5 10 -11 10 -5 0
-7 -4 -4 -10z"/>
<path d="M977 2204 c-10 -10 4 -34 16 -27 6 4 8 0 4 -11 -4 -10 -3 -15 3 -11
6 3 10 -1 10 -9 0 -9 4 -16 10 -16 11 0 65 -81 62 -92 -1 -5 5 -8 14 -8 8 0
12 -5 9 -10 -3 -6 1 -13 9 -16 9 -3 16 -12 16 -19 0 -8 15 -28 33 -46 17 -18
25 -29 17 -25 -8 4 -4 -2 10 -14 14 -12 19 -18 11 -14 -9 5 -12 3 -7 -4 4 -7
14 -12 22 -12 8 0 14 -5 14 -11 0 -5 -6 -7 -12 -3 -9 5 -9 3 1 -9 7 -9 18 -14
24 -10 5 3 7 1 3 -5 -3 -6 -2 -13 4 -17 6 -4 8 -10 5 -15 -3 -5 0 -12 6 -16 8
-5 9 -3 4 7 -8 12 -6 12 9 0 9 -8 15 -20 12 -27 -3 -8 0 -13 7 -11 6 1 13 -8
15 -21 2 -12 7 -20 12 -17 4 2 13 -9 20 -25 7 -16 16 -27 21 -24 5 3 9 0 9 -5
0 -6 0 -13 1 -16 0 -2 13 -18 30 -36 16 -17 29 -36 29 -41 0 -6 9 -19 21 -29
11 -9 20 -21 21 -26 0 -4 4 -7 9 -6 9 3 14 -20 9 -42 -1 -5 2 -7 6 -3 4 5 12
-2 19 -15 6 -12 17 -21 23 -20 7 2 11 0 11 -5 -4 -22 2 -42 11 -37 6 3 10 -1
10 -10 0 -10 5 -13 12 -9 6 4 8 3 4 -4 -3 -6 -2 -13 4 -17 6 -4 7 -12 4 -18
-4 -7 -4 -9 0 -5 10 8 36 -14 29 -24 -2 -5 0 -8 6 -8 5 0 13 -9 16 -20 4 -11
11 -18 16 -15 5 3 6 -1 3 -9 -4 -11 0 -16 12 -16 16 0 17 -2 4 -10 -13 -8 -13
-10 2 -10 9 0 20 -5 24 -12 5 -7 2 -9 -7 -4 -8 4 -3 -2 11 -14 14 -12 18 -19
10 -15 -8 3 -5 -2 8 -11 12 -9 22 -23 22 -30 0 -8 5 -14 10 -14 6 0 10 -7 10
-16 0 -8 5 -12 10 -9 6 3 10 -3 10 -15 0 -12 5 -18 10 -15 6 3 10 -3 10 -15 0
-12 4 -19 8 -16 5 3 15 -7 23 -22 8 -15 21 -33 29 -40 13 -12 13 -13 0 -7 -8
4 -6 -1 4 -9 11 -9 23 -16 28 -16 4 0 8 -5 8 -11 0 -5 -6 -7 -12 -3 -7 4 -2
-5 12 -18 14 -14 28 -24 31 -22 3 2 5 -8 3 -22 -2 -20 0 -23 11 -14 11 9 12 7
8 -10 -4 -14 -1 -20 8 -18 8 2 13 -3 11 -9 -1 -7 6 -13 15 -13 15 0 16 -2 3
-10 -13 -8 -12 -10 3 -10 9 0 17 -7 17 -15 0 -9 7 -18 15 -21 8 -4 12 -10 9
-15 -3 -5 0 -9 6 -9 6 0 8 -4 5 -10 -3 -5 -1 -10 5 -10 6 0 8 -5 4 -12 -5 -7
-3 -8 5 -4 8 5 14 0 18 -13 3 -11 9 -18 14 -15 5 3 9 -4 9 -16 0 -12 5 -18 10
-15 9 5 15 -15 11 -38 0 -4 5 -6 11 -5 7 2 12 -3 10 -9 -1 -7 3 -13 9 -13 5 0
7 -5 3 -12 -4 -6 -3 -8 3 -5 6 4 19 -3 29 -16 13 -14 14 -18 4 -12 -9 6 -7 2
3 -7 11 -10 16 -18 12 -18 -5 0 2 -8 13 -19 12 -10 22 -23 22 -29 0 -5 13 -24
29 -41 17 -18 30 -34 30 -36 1 -3 1 -10 1 -16 0 -5 5 -7 10 -4 6 3 10 1 10 -5
0 -7 8 -19 18 -28 10 -10 11 -12 3 -7 -9 6 -6 -3 7 -20 30 -42 65 -83 56 -66
-5 9 -3 12 5 7 6 -4 9 -11 6 -16 -3 -5 -1 -11 5 -15 6 -4 7 -11 4 -17 -4 -6
-3 -9 2 -6 5 3 14 0 21 -7 10 -11 10 -15 0 -18 -9 -4 -9 -6 1 -6 7 -1 10 -6 7
-11 -4 -6 -3 -10 2 -9 19 5 41 -14 38 -32 -2 -10 1 -22 7 -25 7 -5 8 -2 3 7
-4 8 1 5 12 -6 12 -11 20 -24 19 -29 0 -6 7 -12 18 -14 10 -2 16 0 12 6 -3 5
1 13 10 16 8 3 12 10 9 16 -3 5 1 10 9 10 9 0 15 3 15 7 -3 19 2 34 9 29 4 -2
14 5 22 17 12 21 12 21 -6 7 -18 -14 -18 -14 -5 3 8 10 20 16 27 13 8 -3 11 0
8 8 -3 8 0 17 5 21 6 3 8 11 5 17 -4 6 -2 8 3 5 6 -4 17 1 24 10 12 14 12 16
-1 9 -8 -4 -7 -1 4 8 10 8 15 19 11 25 -4 7 0 8 10 5 9 -4 15 -2 13 4 -2 6 6
18 17 27 11 9 14 14 8 10 -7 -3 -13 -1 -13 4 0 6 6 11 14 11 8 0 18 5 22 12 5
7 2 9 -7 4 -8 -4 -6 -1 4 7 9 8 17 20 17 26 0 7 5 9 12 5 7 -5 9 -2 5 9 -3 9
1 18 10 21 8 4 13 13 10 21 -4 9 -1 12 7 9 12 -5 20 5 25 28 1 4 13 19 26 34
14 15 22 31 18 37 -4 6 0 8 9 5 8 -4 15 -1 15 6 0 16 33 66 44 66 5 0 8 6 7
13 -2 6 3 11 10 9 8 -1 11 2 7 8 -3 5 0 13 9 16 8 3 12 12 9 20 -3 9 1 14 12
14 9 0 14 4 10 9 -3 6 2 14 11 19 9 5 17 13 17 18 1 5 6 8 10 6 5 -1 6 2 2 8
-3 5 -1 10 5 10 6 0 8 4 5 10 -3 5 -1 10 5 10 6 0 8 5 5 10 -3 6 1 10 10 10 9
0 13 5 10 10 -3 6 -1 10 6 10 7 0 9 3 6 7 -4 3 5 17 19 30 14 12 22 28 19 33
-3 6 1 10 10 10 11 0 15 5 11 16 -3 8 -2 12 4 9 6 -3 14 5 19 18 6 14 15 28
21 32 5 3 8 11 5 16 -3 5 2 6 11 2 11 -4 15 -2 11 4 -4 6 5 23 18 37 14 15 22
32 19 38 -4 7 -2 8 4 4 7 -4 14 3 18 19 3 14 13 25 21 25 8 0 11 5 8 10 -3 6
1 13 9 16 9 3 14 10 11 14 -3 4 2 11 11 14 9 3 14 13 11 21 -4 10 -1 12 10 8
11 -4 14 -3 9 5 -4 7 -1 15 8 18 9 3 13 10 10 15 -3 5 0 9 7 9 7 0 10 3 6 6
-3 4 4 15 16 25 12 10 18 18 14 19 -5 0 7 14 25 31 18 18 27 29 21 25 -7 -4
-3 8 10 27 12 19 25 33 29 31 4 -3 10 6 14 18 8 26 29 49 38 43 3 -3 4 -2 1 2
-3 3 1 13 8 21 10 13 9 14 -2 7 -10 -6 -12 -4 -7 4 5 7 14 10 22 7 8 -3 11 0
7 10 -3 7 0 14 6 14 6 0 11 5 11 11 0 7 9 20 21 30 12 10 18 23 13 30 -4 7 -3
9 4 5 6 -3 13 3 17 14 4 12 11 17 18 14 7 -4 9 -4 5 1 -10 11 11 47 22 40 6
-3 7 1 4 9 -4 10 1 18 11 22 9 4 21 18 26 31 5 13 13 21 19 18 5 -3 7 0 4 8
-3 9 4 22 17 31 13 8 20 18 16 22 -8 8 16 33 26 27 4 -2 7 3 7 12 0 10 5 13
13 9 7 -5 6 0 -3 11 -9 11 -10 16 -2 11 7 -4 12 -1 12 9 0 9 4 14 9 11 8 -6
36 43 32 57 -1 5 2 6 6 4 5 -3 14 1 21 9 7 8 9 14 5 14 -4 0 1 7 11 15 11 8
16 15 10 15 -5 0 2 10 16 23 14 12 19 18 10 12 -8 -5 -3 4 13 21 15 17 24 33
20 37 -3 4 1 7 10 7 9 0 19 5 23 12 4 7 3 8 -4 4 -8 -5 -10 -2 -6 8 3 9 10 13
15 10 5 -3 9 1 9 9 0 8 7 18 16 21 8 3 12 10 9 16 -3 5 -1 10 6 10 7 0 9 3 6
7 -4 4 -21 -4 -39 -17 -17 -12 -28 -16 -24 -9 4 8 0 5 -9 -6 -9 -11 -18 -19
-20 -17 -13 7 -25 1 -19 -10 5 -8 2 -9 -9 -5 -11 4 -17 1 -17 -7 0 -7 -7 -13
-15 -14 -8 -1 -22 -3 -30 -4 -8 -1 -13 -4 -11 -7 2 -3 -2 -12 -10 -19 -9 -8
-14 -9 -14 -2 0 7 -7 4 -16 -4 -8 -9 -20 -16 -25 -16 -6 0 -8 -4 -5 -9 4 -5
-4 -7 -16 -3 -13 3 -19 1 -15 -5 5 -8 -30 -33 -53 -38 -5 -1 -43 -24 -90 -54
-14 -9 -43 -25 -65 -36 -22 -11 -41 -23 -43 -27 -2 -5 -10 -8 -18 -8 -8 0 -14
-5 -14 -10 0 -6 -3 -9 -7 -9 -20 3 -34 -2 -28 -11 3 -5 -2 -10 -12 -10 -23 -1
-55 -25 -46 -34 4 -4 0 -4 -8 -1 -9 3 -22 -1 -29 -9 -7 -9 -16 -13 -21 -10 -5
3 -9 0 -9 -5 0 -6 -7 -11 -15 -11 -8 0 -15 -5 -15 -12 0 -6 -3 -9 -6 -5 -4 3
-26 -7 -50 -24 -24 -16 -44 -26 -44 -22 0 4 -7 -1 -15 -11 -8 -11 -15 -16 -15
-12 0 4 -7 0 -16 -9 -9 -9 -23 -14 -30 -11 -8 3 -13 2 -11 -2 1 -4 -2 -8 -8
-10 -5 -2 -18 -11 -28 -19 -9 -9 -17 -12 -17 -7 0 5 -5 1 -11 -9 -6 -9 -14
-15 -20 -12 -5 4 -9 2 -9 -3 0 -6 -13 -15 -30 -21 -16 -5 -30 -15 -30 -21 0
-6 -4 -8 -10 -5 -5 3 -10 1 -10 -5 0 -6 -4 -9 -9 -6 -5 3 -14 -1 -21 -10 -7
-8 -19 -13 -27 -10 -8 3 -12 2 -9 -3 5 -8 -17 -23 -37 -25 -4 -1 -11 -7 -16
-14 -5 -8 -10 -13 -12 -12 -11 5 -57 -24 -52 -33 3 -6 1 -7 -6 -3 -7 5 -27 -4
-48 -20 -20 -15 -33 -21 -29 -13 4 8 -2 3 -13 -10 -12 -13 -21 -20 -21 -16 0
3 -13 -3 -30 -15 -16 -12 -30 -18 -30 -13 0 4 -5 0 -11 -9 -5 -10 -16 -18 -22
-18 -7 0 -24 -8 -37 -17 -28 -20 -50 -25 -50 -12 0 4 -7 6 -15 3 -8 -4 -17 1
-21 10 -3 9 -14 16 -24 16 -10 0 -20 3 -22 8 -4 9 -57 41 -80 49 -10 3 -18 10
-18 15 0 5 -4 6 -10 3 -5 -3 -10 -1 -10 5 0 6 -4 8 -10 5 -5 -3 -10 -1 -10 4
0 6 -7 11 -15 11 -9 0 -18 6 -21 14 -3 9 -12 12 -21 9 -11 -4 -14 -2 -9 5 5 8
0 12 -13 12 -12 0 -21 5 -21 10 0 6 -9 10 -21 10 -13 0 -18 4 -13 12 5 7 2 9
-8 6 -8 -4 -21 2 -28 12 -8 11 -17 17 -21 14 -4 -2 -15 3 -23 12 -9 8 -16 12
-16 7 0 -4 -4 -3 -8 2 -9 12 -61 44 -84 52 -10 3 -18 10 -18 15 0 5 -4 6 -10
3 -5 -3 -10 -1 -10 5 0 6 -4 8 -10 5 -5 -3 -10 -2 -10 3 0 5 -13 15 -30 22
-16 7 -30 16 -30 21 0 5 -9 9 -20 9 -11 0 -20 5 -20 10 0 6 -9 10 -19 10 -11
0 -26 8 -33 18 -7 9 -20 18 -28 20 -8 2 -17 8 -18 13 -2 5 -8 7 -13 3 -5 -3
-9 0 -9 5 0 6 -9 11 -21 11 -12 0 -17 4 -14 11 4 6 0 9 -11 7 -11 -2 -18 2
-16 10 1 6 -1 12 -5 11 -16 -2 -53 14 -53 22 0 5 -7 9 -15 9 -8 0 -15 5 -15
11 0 5 -4 8 -9 4 -5 -3 -16 1 -23 9 -8 7 -24 17 -36 20 -12 4 -22 12 -22 17 0
6 -4 7 -10 4 -5 -3 -10 -3 -10 2 0 4 -23 19 -50 32 -28 14 -50 29 -50 34 0 4
-4 5 -10 2 -5 -3 -10 -1 -10 5 0 6 -4 8 -10 5 -5 -3 -10 -2 -10 4 0 10 -39 27
-53 23 -5 -1 -6 2 -2 8 3 5 -1 10 -10 10 -10 0 -13 5 -9 12 5 7 3 8 -6 3 -7
-4 -15 -4 -19 1 -6 9 -26 22 -92 56 -21 11 -39 24 -39 30 0 5 -4 7 -9 3 -6 -3
-20 5 -32 17 -12 13 -19 17 -15 11 4 -7 3 -13 -2 -13 -6 0 -12 7 -16 15 -3 8
-15 15 -26 15 -12 0 -18 5 -15 10 7 11 2 14 -8 4z"/>
</g>
</svg>
