<svg width="156" height="129" viewBox="0 0 156 129" fill="none" xmlns="http://www.w3.org/2000/svg">
<rect width="136" height="118" transform="translate(9.99609 10.9453)" fill="black"/>
<path d="M55.4881 89.376V103.135H53.2712L46.7882 93.7629H46.674V103.135H44.1816V89.376H46.412L52.8882 98.7544H53.0092V89.376H55.4881Z" fill="white"/>
<path d="M58.0964 103.135V92.8157H60.5283V103.135H58.0964ZM59.3191 91.3511C58.9339 91.3511 58.6025 91.2235 58.3248 90.9682C58.0471 90.7084 57.9083 90.3972 57.9083 90.0344C57.9083 89.6671 58.0471 89.3559 58.3248 89.1006C58.6025 88.8408 58.9339 88.7109 59.3191 88.7109C59.7087 88.7109 60.0402 88.8408 60.3134 89.1006C60.591 89.3559 60.7299 89.6671 60.7299 90.0344C60.7299 90.3972 60.591 90.7084 60.3134 90.9682C60.0402 91.2235 59.7087 91.3511 59.3191 91.3511Z" fill="white"/>
<path d="M63.0291 103.135V92.8157H65.3536V94.5691H65.4745C65.6895 93.9779 66.0455 93.5166 66.5427 93.1852C67.0398 92.8493 67.6332 92.6813 68.3229 92.6813C69.0216 92.6813 69.6106 92.8515 70.0898 93.1919C70.5735 93.5278 70.9139 93.9868 71.1109 94.5691H71.2184C71.4468 93.9958 71.832 93.539 72.3739 93.1986C72.9203 92.8537 73.5675 92.6813 74.3154 92.6813C75.2649 92.6813 76.0397 92.9814 76.6399 93.5815C77.24 94.1817 77.5401 95.0573 77.5401 96.2083V103.135H75.1015V96.5845C75.1015 95.944 74.9313 95.476 74.5909 95.1804C74.2505 94.8803 73.834 94.7303 73.3413 94.7303C72.7546 94.7303 72.2955 94.9139 71.9641 95.2812C71.6372 95.644 71.4737 96.1165 71.4737 96.6987V103.135H69.0888V96.4837C69.0888 95.9508 68.9276 95.5253 68.6051 95.2073C68.2871 94.8893 67.8706 94.7303 67.3555 94.7303C67.0062 94.7303 66.6882 94.8199 66.4016 94.999C66.1149 95.1737 65.8865 95.4223 65.7163 95.7447C65.5461 96.0627 65.4611 96.4345 65.4611 96.8599V103.135H63.0291Z" fill="white"/>
<path d="M80.1148 103.135V89.376H82.5467V94.522H82.6475C82.7729 94.2712 82.9498 94.0048 83.1782 93.7226C83.4066 93.436 83.7157 93.1919 84.1053 92.9903C84.495 92.7843 84.9921 92.6813 85.5967 92.6813C86.3939 92.6813 87.1128 92.8851 87.7532 93.2926C88.3982 93.6957 88.9087 94.2936 89.2849 95.0864C89.6656 95.8746 89.856 96.842 89.856 97.9886C89.856 99.1217 89.6701 100.085 89.2984 100.877C88.9266 101.67 88.4205 102.275 87.7801 102.691C87.1396 103.108 86.4141 103.316 85.6034 103.316C85.0123 103.316 84.5218 103.217 84.1322 103.02C83.7425 102.823 83.429 102.586 83.1917 102.308C82.9588 102.026 82.7774 101.76 82.6475 101.509H82.5064V103.135H80.1148ZM82.4997 97.9751C82.4997 98.6425 82.5938 99.2269 82.7819 99.7285C82.9744 100.23 83.2499 100.622 83.6082 100.904C83.971 101.182 84.4099 101.321 84.9249 101.321C85.4624 101.321 85.9125 101.177 86.2752 100.891C86.638 100.6 86.9112 100.203 87.0948 99.7017C87.283 99.1956 87.377 98.6201 87.377 97.9751C87.377 97.3347 87.2852 96.7659 87.1016 96.2687C86.9179 95.7716 86.6447 95.382 86.282 95.0998C85.9192 94.8176 85.4668 94.6766 84.9249 94.6766C84.4054 94.6766 83.9642 94.8132 83.6015 95.0864C83.2387 95.3596 82.9632 95.7425 82.7751 96.2352C82.5915 96.7278 82.4997 97.3078 82.4997 97.9751Z" fill="white"/>
<path d="M98.5004 98.7947V92.8157H100.932V103.135H98.5743V101.301H98.4668C98.2339 101.878 97.851 102.351 97.318 102.718C96.7896 103.085 96.1379 103.269 95.3631 103.269C94.6868 103.269 94.0889 103.119 93.5694 102.819C93.0543 102.514 92.6512 102.073 92.3601 101.495C92.069 100.913 91.9234 100.21 91.9234 99.3859V92.8157H94.3554V99.0097C94.3554 99.6636 94.5345 100.183 94.8928 100.568C95.2511 100.953 95.7214 101.146 96.3036 101.146C96.6619 101.146 97.009 101.059 97.3449 100.884C97.6808 100.709 97.9563 100.45 98.1712 100.105C98.3907 99.7554 98.5004 99.3187 98.5004 98.7947Z" fill="white"/>
<path d="M111.589 95.5432L109.372 95.785C109.309 95.5611 109.199 95.3506 109.043 95.1535C108.89 94.9565 108.684 94.7975 108.425 94.6766C108.165 94.5556 107.847 94.4952 107.471 94.4952C106.965 94.4952 106.539 94.6049 106.194 94.8244C105.854 95.0438 105.686 95.3282 105.69 95.6776C105.686 95.9776 105.796 96.2217 106.02 96.4098C106.248 96.5979 106.624 96.7524 107.148 96.8734L108.908 97.2496C109.885 97.4601 110.61 97.7937 111.085 98.2506C111.564 98.7074 111.806 99.3053 111.811 100.044C111.806 100.694 111.616 101.267 111.24 101.764C110.868 102.257 110.35 102.642 109.688 102.92C109.025 103.197 108.263 103.336 107.404 103.336C106.141 103.336 105.124 103.072 104.354 102.543C103.583 102.01 103.124 101.269 102.976 100.32L105.348 100.091C105.455 100.557 105.684 100.909 106.033 101.146C106.382 101.383 106.837 101.502 107.397 101.502C107.975 101.502 108.438 101.383 108.787 101.146C109.141 100.909 109.318 100.615 109.318 100.266C109.318 99.9704 109.204 99.7263 108.976 99.5337C108.752 99.3411 108.402 99.1933 107.928 99.0903L106.167 98.7208C105.178 98.5148 104.445 98.1677 103.971 97.6795C103.496 97.1869 103.261 96.5643 103.265 95.8119C103.261 95.1759 103.433 94.6251 103.782 94.1593C104.136 93.689 104.627 93.3262 105.254 93.071C105.885 92.8112 106.613 92.6813 107.437 92.6813C108.646 92.6813 109.598 92.9388 110.292 93.4539C110.991 93.9689 111.423 94.6654 111.589 95.5432Z" fill="white"/>
<path d="M99.3911 58.4463V79.8415C87.6266 79.8415 81.5616 78.772 74.4298 69.144C67.2981 59.516 62.6905 58.446 56.6004 58.446V79.8415H35.2051V58.446H56.6004V37.0508C67.5774 37.0508 74.4298 38.4771 81.5616 47.7485C88.6934 57.0199 92.4539 58.4463 99.3911 58.4463V37.0508H120.786V58.4463H99.3911Z" fill="white"/>
</svg>
